<svg width="28" height="29" viewBox="0 0 28 29" fill="none" xmlns="http://www.w3.org/2000/svg">
<path d="M4.97907 22.4855C5.24143 24.4342 6.85544 25.9608 8.81956 26.0511C10.4723 26.127 12.1511 26.1667 14 26.1667C15.8488 26.1667 17.5276 26.127 19.1803 26.0511C21.1445 25.9608 22.7585 24.4342 23.0209 22.4855C23.1921 21.2138 23.3333 19.9105 23.3333 18.5833C23.3333 17.2561 23.1921 15.9529 23.0209 14.6812C22.7585 12.7325 21.1445 11.2059 19.1803 11.1156C17.5276 11.0396 15.8488 11 14 11C12.1511 11 10.4723 11.0396 8.81956 11.1156C6.85544 11.2059 5.24143 12.7325 4.97907 14.6812C4.80785 15.9529 4.66663 17.2561 4.66663 18.5833C4.66663 19.9105 4.80785 21.2138 4.97907 22.4855Z" stroke="#9E9E9E" stroke-width="1.75"/>
<path d="M8.75 11V8.08334C8.75 5.18385 11.1005 2.83334 14 2.83334C16.8995 2.83334 19.25 5.18385 19.25 8.08334V11" stroke="#9E9E9E" stroke-width="1.75" stroke-linecap="round" stroke-linejoin="round"/>
<path d="M18.6666 18.5717V18.5833" stroke="#9E9E9E" stroke-width="2.33333" stroke-linecap="round" stroke-linejoin="round"/>
<path d="M14 18.5717V18.5833" stroke="#9E9E9E" stroke-width="2.33333" stroke-linecap="round" stroke-linejoin="round"/>
<path d="M9.33337 18.5717V18.5833" stroke="#9E9E9E" stroke-width="2.33333" stroke-linecap="round" stroke-linejoin="round"/>
</svg>
