<svg width="28" height="29" viewBox="0 0 28 29" fill="none" xmlns="http://www.w3.org/2000/svg">
<path d="M5.8335 11C5.8335 7.15021 5.8335 5.2253 7.02948 4.02933C8.22545 2.83334 10.1504 2.83334 14.0002 2.83334C17.8499 2.83334 19.7748 2.83334 20.9709 4.02933C22.1668 5.2253 22.1668 7.15021 22.1668 11V18C22.1668 21.8498 22.1668 23.7747 20.9709 24.9707C19.7748 26.1667 17.8499 26.1667 14.0002 26.1667C10.1504 26.1667 8.22545 26.1667 7.02948 24.9707C5.8335 23.7747 5.8335 21.8498 5.8335 18V11Z" stroke="#9E9E9E" stroke-width="1.75" stroke-linecap="round"/>
<path d="M12.8335 22.6667H15.1668" stroke="#9E9E9E" stroke-width="1.75" stroke-linecap="round" stroke-linejoin="round"/>
<path d="M10.5 2.83334L10.6038 3.45637C10.8289 4.80652 10.9414 5.4816 11.4044 5.89239C11.8874 6.32091 12.5721 6.33334 14 6.33334C15.4279 6.33334 16.1126 6.32091 16.5956 5.89239C17.0587 5.4816 17.1711 4.80652 17.3962 3.45637L17.5 2.83334" stroke="#9E9E9E" stroke-width="1.75" stroke-linejoin="round"/>
</svg>
