<svg width="22" height="17" viewBox="0 0 22 17" fill="none" xmlns="http://www.w3.org/2000/svg">
<path d="M18.439 11.939C19.3636 11.0212 20.0775 10.1091 20.544 9.455C20.848 9.0287 21 8.8155 21 8.5C21 8.1845 20.848 7.9713 20.544 7.545C19.1779 5.62944 15.6892 1.5 11 1.5C10.0922 1.5 9.2294 1.65476 8.41827 1.91827M5.74742 3.24742C3.73118 4.6072 2.24215 6.44266 1.45604 7.545C1.15201 7.9713 1 8.1845 1 8.5C1 8.8155 1.15201 9.0287 1.45604 9.455C2.8221 11.3706 6.31078 15.5 11 15.5C12.9908 15.5 14.7651 14.7557 16.2526 13.7526" stroke="#9E9E9E" stroke-width="1.5" stroke-linecap="round" stroke-linejoin="round"/>
</svg>
